ffmpeg started on 2026-01-19 at 15:10:35
Report written to "D:\Convert\FFMetrics\reports\psnr_report-6.txt"
Log level: 32
Command line:
ffmpeg -hide_banner -nostdin -r 24000/1001 -i "F:\\Convert\\files\\[DC] Make Heroine ga Oosugiru - 07_Telegram_HEVC(190).mkv" -r 24000/1001 -i "F:\\Convert\\files\\[DC] Make Heroine ga Oosugiru - 07_Telegram.mp4" -lavfi "[0:v]settb=AVTB,setpts=PTS-STARTPTS,format=pix_fmts=yuv420p10le,fps=24000/1001,scale=1920:1080:flags=lanczos:param0=3:out_range=limited:out_color_matrix=bt709:out_chroma_loc=left,setsar=1/1,setdar=(1920/1080)*(1/1),colorspace=format=yuv420p10:range=tv:primaries=bt709:trc=bt709:space=bt709:fast=0[main];[1:v]settb=AVTB,setpts=PTS-STARTPTS,format=pix_fmts=yuv420p,fps=24000/1001,scale=1920:1080:flags=lanczos:param0=3:out_range=limited:out_color_matrix=bt709:out_chroma_loc=left,setsar=1.000,setdar=1.778,colorspace=format=yuv420p:range=tv:primaries=bt709:trc=bt709:space=bt709:fast=0[ref];[main][ref]psnr=eof_action=endall:stats_file='D\\:/Convert/FFMetrics/logs/psnr_logfile-6.txt'" -f null -
Input #0, matroska,webm, from 'F:\Convert\files\[DC] Make Heroine ga Oosugiru - 07_Telegram_HEVC(190).mkv':
  Metadata:
    COMPATIBLE_BRANDS: isomiso2avc1mp41
    MAJOR_BRAND     : isom
    MINOR_VERSION   : 512
    ENCODER         : Lavf61.7.100
  Duration: 00:24:06.79, start: -0.021000, bitrate: 971 kb/s
  Stream #0:0: Video: hevc (Main 10), yuv420p10le(tv, bt709, progressive), 1920x1080 [SAR 1:1 DAR 16:9], 23.98 fps, 23.98 tbr, 1k tbn (default)
      Metadata:
        HANDLER_NAME    : VideoHandler
        VENDOR_ID       : [0][0][0][0]
        ENCODER         : Lavc61.19.100 libx265
        BPS             : 773942
        DURATION        : 00:24:06.569708333
        NUMBER_OF_FRAMES: 34683
        NUMBER_OF_BYTES : 139945210
        _STATISTICS_WRITING_APP: mkvpropedit v94.0 ('Initiate') 64-bit
        _STATISTICS_WRITING_DATE_UTC: 2026-01-19 11:39:31
        _STATISTICS_TAGS: BPS DURATION NUMBER_OF_FRAMES NUMBER_OF_BYTES
  Stream #0:1: Audio: aac (LC), 48000 Hz, stereo, fltp (default)
      Metadata:
        HANDLER_NAME    : SoundHandler
        VENDOR_ID       : [0][0][0][0]
        ENCODER         : Lavc61.19.100 aac
        BPS             : 193194
        DURATION        : 00:24:06.784000000
        NUMBER_OF_FRAMES: 67819
        NUMBER_OF_BYTES : 34938755
        _STATISTICS_WRITING_APP: mkvpropedit v94.0 ('Initiate') 64-bit
        _STATISTICS_WRITING_DATE_UTC: 2026-01-19 11:39:31
        _STATISTICS_TAGS: BPS DURATION NUMBER_OF_FRAMES NUMBER_OF_BYTES
Input #1, mov,mp4,m4a,3gp,3g2,mj2, from 'F:\Convert\files\[DC] Make Heroine ga Oosugiru - 07_Telegram.mp4':
  Metadata:
    major_brand     : isom
    minor_version   : 512
    compatible_brands: isomiso2avc1mp41
    encoder         : Lavf60.16.100
  Duration: 00:24:06.74, start: 0.000000, bitrate: 3764 kb/s
  Stream #1:0[0x1](und): Video: h264 (High) (avc1 / 0x31637661), yuv420p(tv, bt709, progressive), 1920x1080 [SAR 1:1 DAR 16:9], 3616 kb/s, 23.98 fps, 23.98 tbr, 24k tbn (default)
      Metadata:
        handler_name    : VideoHandler
        vendor_id       : [0][0][0][0]
        encoder         : Lavc60.31.102 h264_qsv
  Stream #1:1[0x2](und): Audio: aac (HE-AACv2) (mp4a / 0x6134706D), 48000 Hz, stereo, fltp, 144 kb/s (default)
      Metadata:
        handler_name    : SoundHandler
        vendor_id       : [0][0][0][0]
Stream mapping:
  Stream #0:0 (hevc) -> settb:default
  Stream #1:0 (h264) -> settb:default
  psnr:default -> Stream #0:0 (wrapped_avframe)
  Stream #0:1 -> #0:1 (aac (native) -> pcm_s16le (native))
Output #0, null, to 'pipe:':
  Metadata:
    COMPATIBLE_BRANDS: isomiso2avc1mp41
    MAJOR_BRAND     : isom
    MINOR_VERSION   : 512
    encoder         : Lavf61.7.100
  Stream #0:0: Video: wrapped_avframe, yuv420p10le(tv, bt709, progressive), 1920x1080 [SAR 1:1 DAR 16:9], q=2-31, 200 kb/s, 23.98 fps, 23.98 tbn
      Metadata:
        encoder         : Lavc61.19.100 wrapped_avframe
  Stream #0:1: Audio: pcm_s16le, 48000 Hz, stereo, s16, 1536 kb/s (default)
      Metadata:
        HANDLER_NAME    : SoundHandler
        VENDOR_ID       : [0][0][0][0]
        _STATISTICS_TAGS: BPS DURATION NUMBER_OF_FRAMES NUMBER_OF_BYTES
        BPS             : 193194
        DURATION        : 00:24:06.784000000
        NUMBER_OF_FRAMES: 67819
        NUMBER_OF_BYTES : 34938755
        _STATISTICS_WRITING_APP: mkvpropedit v94.0 ('Initiate') 64-bit
        _STATISTICS_WRITING_DATE_UTC: 2026-01-19 11:39:31
        encoder         : Lavc61.19.100 pcm_s16le
frame=  141 fps=0.0 q=-0.0 size=N/A time=00:00:05.88 bitrate=N/A speed=11.3x    frame=  343 fps=328 q=-0.0 size=N/A time=00:00:14.30 bitrate=N/A speed=13.7x    frame=  558 fps=355 q=-0.0 size=N/A time=00:00:23.27 bitrate=N/A speed=14.8x    frame=  767 fps=368 q=-0.0 size=N/A time=00:00:31.99 bitrate=N/A speed=15.3x    frame=  937 fps=361 q=-0.0 size=N/A time=00:00:39.08 bitrate=N/A speed=15.1x    frame= 1091 fps=349 q=-0.0 size=N/A time=00:00:45.50 bitrate=N/A speed=14.6x    frame= 1258 fps=346 q=-0.0 size=N/A time=00:00:52.46 bitrate=N/A speed=14.4x    frame= 1426 fps=344 q=-0.0 size=N/A time=00:00:59.47 bitrate=N/A speed=14.3x    frame= 1565 fps=336 q=-0.0 size=N/A time=00:01:05.27 bitrate=N/A speed=  14x    frame= 1727 fps=333 q=-0.0 size=N/A time=00:01:12.03 bitrate=N/A speed=13.9x    frame= 1898 fps=333 q=-0.0 size=N/A time=00:01:19.16 bitrate=N/A speed=13.9x    frame= 2054 fps=331 q=-0.0 size=N/A time=00:01:25.66 bitrate=N/A speed=13.8x    frame= 2174 fps=324 q=-0.0 size=N/A time=00:01:30.67 bitrate=N/A speed=13.5x    frame= 2342 fps=323 q=-0.0 size=N/A time=00:01:37.68 bitrate=N/A speed=13.5x    frame= 2473 fps=319 q=-0.0 size=N/A time=00:01:43.14 bitrate=N/A speed=13.3x    frame= 2610 fps=316 q=-0.0 size=N/A time=00:01:48.85 bitrate=N/A speed=13.2x    frame= 2796 fps=318 q=-0.0 size=N/A time=00:01:56.61 bitrate=N/A speed=13.3x    frame= 2971 fps=320 q=-0.0 size=N/A time=00:02:03.91 bitrate=N/A speed=13.3x    frame= 3174 fps=323 q=-0.0 size=N/A time=00:02:12.38 bitrate=N/A speed=13.5x    frame= 3380 fps=327 q=-0.0 size=N/A time=00:02:20.97 bitrate=N/A speed=13.6x    frame= 3580 fps=330 q=-0.0 size=N/A time=00:02:29.31 bitrate=N/A speed=13.8x    frame= 3784 fps=333 q=-0.0 size=N/A time=00:02:37.82 bitrate=N/A speed=13.9x    frame= 3990 fps=336 q=-0.0 size=N/A time=00:02:46.41 bitrate=N/A speed=  14x    frame= 4193 fps=338 q=-0.0 size=N/A time=00:02:54.88 bitrate=N/A speed=14.1x    frame= 4394 fps=340 q=-0.0 size=N/A time=00:03:03.26 bitrate=N/A speed=14.2x    frame= 4599 fps=343 q=-0.0 size=N/A time=00:03:11.81 bitrate=N/A speed=14.3x    frame= 4802 fps=344 q=-0.0 size=N/A time=00:03:20.28 bitrate=N/A speed=14.4x    frame= 5005 fps=346 q=-0.0 size=N/A time=00:03:28.75 bitrate=N/A speed=14.4x    frame= 5198 fps=347 q=-0.0 size=N/A time=00:03:36.79 bitrate=N/A speed=14.5x    frame= 5397 fps=349 q=-0.0 size=N/A time=00:03:45.09 bitrate=N/A speed=14.5x    frame= 5604 fps=350 q=-0.0 size=N/A time=00:03:53.73 bitrate=N/A speed=14.6x    frame= 5797 fps=351 q=-0.0 size=N/A time=00:04:01.78 bitrate=N/A speed=14.6x    frame= 5996 fps=352 q=-0.0 size=N/A time=00:04:10.08 bitrate=N/A speed=14.7x    frame= 6198 fps=353 q=-0.0 size=N/A time=00:04:18.50 bitrate=N/A speed=14.7x    frame= 6400 fps=354 q=-0.0 size=N/A time=00:04:26.93 bitrate=N/A speed=14.8x    frame= 6599 fps=355 q=-0.0 size=N/A time=00:04:35.23 bitrate=N/A speed=14.8x    frame= 6803 fps=356 q=-0.0 size=N/A time=00:04:43.74 bitrate=N/A speed=14.9x    frame= 7001 fps=357 q=-0.0 size=N/A time=00:04:52.00 bitrate=N/A speed=14.9x    frame= 7196 fps=357 q=-0.0 size=N/A time=00:05:00.13 bitrate=N/A speed=14.9x    frame= 7398 fps=358 q=-0.0 size=N/A time=00:05:08.55 bitrate=N/A speed=14.9x    frame= 7587 fps=359 q=-0.0 size=N/A time=00:05:16.44 bitrate=N/A speed=  15x    frame= 7785 fps=359 q=-0.0 size=N/A time=00:05:24.69 bitrate=N/A speed=  15x    frame= 7975 fps=359 q=-0.0 size=N/A time=00:05:32.62 bitrate=N/A speed=  15x    frame= 8169 fps=360 q=-0.0 size=N/A time=00:05:40.71 bitrate=N/A speed=  15x    frame= 8370 fps=360 q=-0.0 size=N/A time=00:05:49.09 bitrate=N/A speed=  15x    frame= 8570 fps=361 q=-0.0 size=N/A time=00:05:57.44 bitrate=N/A speed=15.1x    frame= 8759 fps=361 q=-0.0 size=N/A time=00:06:05.32 bitrate=N/A speed=15.1x    frame= 8963 fps=362 q=-0.0 size=N/A time=00:06:13.83 bitrate=N/A speed=15.1x    frame= 9167 fps=362 q=-0.0 size=N/A time=00:06:22.34 bitrate=N/A speed=15.1x    frame= 9365 fps=363 q=-0.0 size=N/A time=00:06:30.59 bitrate=N/A speed=15.1x    frame= 9567 fps=363 q=-0.0 size=N/A time=00:06:39.02 bitrate=N/A speed=15.2x    frame= 9759 fps=364 q=-0.0 size=N/A time=00:06:47.03 bitrate=N/A speed=15.2x    frame= 9974 fps=364 q=-0.0 size=N/A time=00:06:55.99 bitrate=N/A speed=15.2x    frame=10162 fps=364 q=-0.0 size=N/A time=00:07:03.84 bitrate=N/A speed=15.2x    frame=10359 fps=365 q=-0.0 size=N/A time=00:07:12.05 bitrate=N/A speed=15.2x    frame=10560 fps=365 q=-0.0 size=N/A time=00:07:20.44 bitrate=N/A speed=15.2x    frame=10753 fps=365 q=-0.0 size=N/A time=00:07:28.48 bitrate=N/A speed=15.2x    frame=10950 fps=366 q=-0.0 size=N/A time=00:07:36.70 bitrate=N/A speed=15.3x    frame=11146 fps=366 q=-0.0 size=N/A time=00:07:44.88 bitrate=N/A speed=15.3x    frame=11330 fps=366 q=-0.0 size=N/A time=00:07:52.55 bitrate=N/A speed=15.2x    frame=11537 fps=366 q=-0.0 size=N/A time=00:08:01.18 bitrate=N/A speed=15.3x    frame=11728 fps=366 q=-0.0 size=N/A time=00:08:09.15 bitrate=N/A speed=15.3x    frame=11928 fps=367 q=-0.0 size=N/A time=00:08:17.49 bitrate=N/A speed=15.3x    frame=12129 fps=367 q=-0.0 size=N/A time=00:08:25.88 bitrate=N/A speed=15.3x    frame=12327 fps=367 q=-0.0 size=N/A time=00:08:34.13 bitrate=N/A speed=15.3x    frame=12526 fps=367 q=-0.0 size=N/A time=00:08:42.43 bitrate=N/A speed=15.3x    frame=12737 fps=368 q=-0.0 size=N/A time=00:08:51.23 bitrate=N/A speed=15.3x    frame=12933 fps=368 q=-0.0 size=N/A time=00:08:59.41 bitrate=N/A speed=15.4x    frame=13132 fps=368 q=-0.0 size=N/A time=00:09:07.71 bitrate=N/A speed=15.4x    frame=13330 fps=369 q=-0.0 size=N/A time=00:09:15.97 bitrate=N/A speed=15.4x    frame=13520 fps=369 q=-0.0 size=N/A time=00:09:23.89 bitrate=N/A speed=15.4x    frame=13719 fps=369 q=-0.0 size=N/A time=00:09:32.19 bitrate=N/A speed=15.4x    frame=13921 fps=369 q=-0.0 size=N/A time=00:09:40.62 bitrate=N/A speed=15.4x    frame=14098 fps=369 q=-0.0 size=N/A time=00:09:48.00 bitrate=N/A speed=15.4x    frame=14291 fps=369 q=-0.0 size=N/A time=00:09:56.05 bitrate=N/A speed=15.4x    frame=14493 fps=369 q=-0.0 size=N/A time=00:10:04.47 bitrate=N/A speed=15.4x    frame=14690 fps=369 q=-0.0 size=N/A time=00:10:12.69 bitrate=N/A speed=15.4x    frame=14883 fps=369 q=-0.0 size=N/A time=00:10:20.74 bitrate=N/A speed=15.4x    frame=15074 fps=369 q=-0.0 size=N/A time=00:10:28.71 bitrate=N/A speed=15.4x    frame=15241 fps=369 q=-0.0 size=N/A time=00:10:35.67 bitrate=N/A speed=15.4x    frame=15439 fps=369 q=-0.0 size=N/A time=00:10:43.93 bitrate=N/A speed=15.4x    frame=15627 fps=369 q=-0.0 size=N/A time=00:10:51.77 bitrate=N/A speed=15.4x    frame=15829 fps=369 q=-0.0 size=N/A time=00:11:00.20 bitrate=N/A speed=15.4x    frame=16041 fps=370 q=-0.0 size=N/A time=00:11:09.04 bitrate=N/A speed=15.4x    frame=16243 fps=370 q=-0.0 size=N/A time=00:11:17.46 bitrate=N/A speed=15.4x    frame=16439 fps=370 q=-0.0 size=N/A time=00:11:25.64 bitrate=N/A speed=15.4x    frame=16632 fps=370 q=-0.0 size=N/A time=00:11:33.69 bitrate=N/A speed=15.4x    frame=16841 fps=371 q=-0.0 size=N/A time=00:11:42.41 bitrate=N/A speed=15.5x    frame=17039 fps=371 q=-0.0 size=N/A time=00:11:50.66 bitrate=N/A speed=15.5x    frame=17241 fps=371 q=-0.0 size=N/A time=00:11:59.09 bitrate=N/A speed=15.5x    frame=17439 fps=371 q=-0.0 size=N/A time=00:12:07.35 bitrate=N/A speed=15.5x    frame=17639 fps=371 q=-0.0 size=N/A time=00:12:15.69 bitrate=N/A speed=15.5x    frame=17827 fps=371 q=-0.0 size=N/A time=00:12:23.53 bitrate=N/A speed=15.5x    frame=18028 fps=371 q=-0.0 size=N/A time=00:12:31.91 bitrate=N/A speed=15.5x    frame=18223 fps=371 q=-0.0 size=N/A time=00:12:40.05 bitrate=N/A speed=15.5x    frame=18413 fps=371 q=-0.0 size=N/A time=00:12:47.97 bitrate=N/A speed=15.5x    frame=18612 fps=371 q=-0.0 size=N/A time=00:12:56.27 bitrate=N/A speed=15.5x    frame=18810 fps=372 q=-0.0 size=N/A time=00:13:04.53 bitrate=N/A speed=15.5x    frame=19016 fps=372 q=-0.0 size=N/A time=00:13:13.12 bitrate=N/A speed=15.5x    frame=19222 fps=372 q=-0.0 size=N/A time=00:13:21.71 bitrate=N/A speed=15.5x    frame=19422 fps=372 q=-0.0 size=N/A time=00:13:30.05 bitrate=N/A speed=15.5x    frame=19623 fps=373 q=-0.0 size=N/A time=00:13:38.44 bitrate=N/A speed=15.5x    frame=19823 fps=373 q=-0.0 size=N/A time=00:13:46.78 bitrate=N/A speed=15.5x    frame=20028 fps=373 q=-0.0 size=N/A time=00:13:55.33 bitrate=N/A speed=15.6x    frame=20236 fps=373 q=-0.0 size=N/A time=00:14:04.00 bitrate=N/A speed=15.6x    frame=20429 fps=373 q=-0.0 size=N/A time=00:14:12.05 bitrate=N/A speed=15.6x    frame=20617 fps=373 q=-0.0 size=N/A time=00:14:19.90 bitrate=N/A speed=15.6x    frame=20805 fps=373 q=-0.0 size=N/A time=00:14:27.74 bitrate=N/A speed=15.6x    frame=21005 fps=373 q=-0.0 size=N/A time=00:14:36.08 bitrate=N/A speed=15.6x    frame=21210 fps=373 q=-0.0 size=N/A time=00:14:44.63 bitrate=N/A speed=15.6x    frame=21413 fps=373 q=-0.0 size=N/A time=00:14:53.10 bitrate=N/A speed=15.6x    frame=21605 fps=373 q=-0.0 size=N/A time=00:15:01.10 bitrate=N/A speed=15.6x    frame=21808 fps=374 q=-0.0 size=N/A time=00:15:09.57 bitrate=N/A speed=15.6x    frame=22014 fps=374 q=-0.0 size=N/A time=00:15:18.16 bitrate=N/A speed=15.6x    frame=22215 fps=374 q=-0.0 size=N/A time=00:15:26.55 bitrate=N/A speed=15.6x    frame=22420 fps=374 q=-0.0 size=N/A time=00:15:35.10 bitrate=N/A speed=15.6x    frame=22624 fps=374 q=-0.0 size=N/A time=00:15:43.60 bitrate=N/A speed=15.6x    frame=22815 fps=374 q=-0.0 size=N/A time=00:15:51.57 bitrate=N/A speed=15.6x    frame=23016 fps=375 q=-0.0 size=N/A time=00:15:59.95 bitrate=N/A speed=15.6x    frame=23218 fps=375 q=-0.0 size=N/A time=00:16:08.38 bitrate=N/A speed=15.6x    frame=23422 fps=375 q=-0.0 size=N/A time=00:16:16.89 bitrate=N/A speed=15.6x    frame=23625 fps=375 q=-0.0 size=N/A time=00:16:25.35 bitrate=N/A speed=15.6x    frame=23825 fps=375 q=-0.0 size=N/A time=00:16:33.70 bitrate=N/A speed=15.6x    frame=24027 fps=375 q=-0.0 size=N/A time=00:16:42.12 bitrate=N/A speed=15.6x    frame=24216 fps=375 q=-0.0 size=N/A time=00:16:50.00 bitrate=N/A speed=15.6x    frame=24423 fps=375 q=-0.0 size=N/A time=00:16:58.64 bitrate=N/A speed=15.7x    frame=24623 fps=375 q=-0.0 size=N/A time=00:17:06.98 bitrate=N/A speed=15.7x    frame=24826 fps=376 q=-0.0 size=N/A time=00:17:15.45 bitrate=N/A speed=15.7x    frame=25027 fps=376 q=-0.0 size=N/A time=00:17:23.83 bitrate=N/A speed=15.7x    frame=25225 fps=376 q=-0.0 size=N/A time=00:17:32.09 bitrate=N/A speed=15.7x    frame=25428 fps=376 q=-0.0 size=N/A time=00:17:40.55 bitrate=N/A speed=15.7x    frame=25630 fps=376 q=-0.0 size=N/A time=00:17:48.98 bitrate=N/A speed=15.7x    frame=25830 fps=376 q=-0.0 size=N/A time=00:17:57.32 bitrate=N/A speed=15.7x    frame=26029 fps=376 q=-0.0 size=N/A time=00:18:05.62 bitrate=N/A speed=15.7x    frame=26232 fps=376 q=-0.0 size=N/A time=00:18:14.09 bitrate=N/A speed=15.7x    frame=26434 fps=376 q=-0.0 size=N/A time=00:18:22.51 bitrate=N/A speed=15.7x    frame=26631 fps=376 q=-0.0 size=N/A time=00:18:30.73 bitrate=N/A speed=15.7x    frame=26835 fps=377 q=-0.0 size=N/A time=00:18:39.24 bitrate=N/A speed=15.7x    frame=27023 fps=376 q=-0.0 size=N/A time=00:18:47.08 bitrate=N/A speed=15.7x    frame=27213 fps=376 q=-0.0 size=N/A time=00:18:55.00 bitrate=N/A speed=15.7x    frame=27408 fps=376 q=-0.0 size=N/A time=00:19:03.14 bitrate=N/A speed=15.7x    frame=27599 fps=376 q=-0.0 size=N/A time=00:19:11.10 bitrate=N/A speed=15.7x    frame=27799 fps=376 q=-0.0 size=N/A time=00:19:19.44 bitrate=N/A speed=15.7x    frame=27999 fps=376 q=-0.0 size=N/A time=00:19:27.79 bitrate=N/A speed=15.7x    frame=28193 fps=376 q=-0.0 size=N/A time=00:19:35.88 bitrate=N/A speed=15.7x    frame=28387 fps=377 q=-0.0 size=N/A time=00:19:43.97 bitrate=N/A speed=15.7x    frame=28584 fps=376 q=-0.0 size=N/A time=00:19:52.19 bitrate=N/A speed=15.7x    frame=28776 fps=376 q=-0.0 size=N/A time=00:20:00.19 bitrate=N/A speed=15.7x    frame=28946 fps=376 q=-0.0 size=N/A time=00:20:07.28 bitrate=N/A speed=15.7x    frame=29122 fps=376 q=-0.0 size=N/A time=00:20:14.63 bitrate=N/A speed=15.7x    frame=29304 fps=376 q=-0.0 size=N/A time=00:20:22.22 bitrate=N/A speed=15.7x    frame=29479 fps=375 q=-0.0 size=N/A time=00:20:29.51 bitrate=N/A speed=15.7x    frame=29658 fps=375 q=-0.0 size=N/A time=00:20:36.98 bitrate=N/A speed=15.7x    frame=29840 fps=375 q=-0.0 size=N/A time=00:20:44.57 bitrate=N/A speed=15.6x    frame=30006 fps=375 q=-0.0 size=N/A time=00:20:51.50 bitrate=N/A speed=15.6x    frame=30195 fps=375 q=-0.0 size=N/A time=00:20:59.38 bitrate=N/A speed=15.6x    frame=30385 fps=375 q=-0.0 size=N/A time=00:21:07.30 bitrate=N/A speed=15.6x    frame=30585 fps=375 q=-0.0 size=N/A time=00:21:15.64 bitrate=N/A speed=15.6x    frame=30783 fps=375 q=-0.0 size=N/A time=00:21:23.90 bitrate=N/A speed=15.6x    frame=30984 fps=375 q=-0.0 size=N/A time=00:21:32.29 bitrate=N/A speed=15.6x    frame=31184 fps=375 q=-0.0 size=N/A time=00:21:40.63 bitrate=N/A speed=15.6x    frame=31370 fps=375 q=-0.0 size=N/A time=00:21:48.39 bitrate=N/A speed=15.6x    frame=31569 fps=375 q=-0.0 size=N/A time=00:21:56.69 bitrate=N/A speed=15.6x    frame=31766 fps=375 q=-0.0 size=N/A time=00:22:04.90 bitrate=N/A speed=15.6x    frame=31944 fps=375 q=-0.0 size=N/A time=00:22:12.33 bitrate=N/A speed=15.6x    frame=32135 fps=375 q=-0.0 size=N/A time=00:22:20.29 bitrate=N/A speed=15.6x    frame=32338 fps=375 q=-0.0 size=N/A time=00:22:28.76 bitrate=N/A speed=15.6x    frame=32540 fps=375 q=-0.0 size=N/A time=00:22:37.18 bitrate=N/A speed=15.6x    frame=32700 fps=375 q=-0.0 size=N/A time=00:22:43.86 bitrate=N/A speed=15.6x    frame=32854 fps=374 q=-0.0 size=N/A time=00:22:50.28 bitrate=N/A speed=15.6x    frame=33052 fps=374 q=-0.0 size=N/A time=00:22:58.54 bitrate=N/A speed=15.6x    frame=33236 fps=374 q=-0.0 size=N/A time=00:23:06.21 bitrate=N/A speed=15.6x    frame=33414 fps=374 q=-0.0 size=N/A time=00:23:13.64 bitrate=N/A speed=15.6x    frame=33571 fps=374 q=-0.0 size=N/A time=00:23:20.19 bitrate=N/A speed=15.6x    frame=33725 fps=373 q=-0.0 size=N/A time=00:23:26.61 bitrate=N/A speed=15.6x    frame=33848 fps=372 q=-0.0 size=N/A time=00:23:31.74 bitrate=N/A speed=15.5x    frame=33999 fps=372 q=-0.0 size=N/A time=00:23:38.04 bitrate=N/A speed=15.5x    frame=34170 fps=372 q=-0.0 size=N/A time=00:23:45.17 bitrate=N/A speed=15.5x    frame=34323 fps=371 q=-0.0 size=N/A time=00:23:51.55 bitrate=N/A speed=15.5x    frame=34458 fps=371 q=-0.0 size=N/A time=00:23:57.18 bitrate=N/A speed=15.5x    frame=34637 fps=370 q=-0.0 size=N/A time=00:24:04.65 bitrate=N/A speed=15.5x    [Parsed_psnr_16 @ 0000020d72dc4040] PSNR y:48.993694 u:50.344802 v:50.394279 average:49.405686 min:37.987913 max:inf
[out#0/null @ 0000020d6b22fe80] video:14903KiB audio:271276KiB subtitle:0KiB other streams:0KiB global headers:0KiB muxing overhead: unknown
frame=34683 fps=371 q=-0.0 Lsize=N/A time=00:24:06.57 bitrate=N/A speed=15.5x    
